<svg width="12" height="12" viewBox="0 0 12 12" fill="none" xmlns="http://www.w3.org/2000/svg">
<path d="M11.992 0.401108C11.9915 0.399108 11.9908 0.397108 11.9903 0.395107C11.9818 0.355352 11.9673 0.316846 11.949 0.279591C11.9443 0.27009 11.9395 0.260839 11.9343 0.251337C11.9128 0.213582 11.8878 0.177327 11.8555 0.145072C11.8233 0.112818 11.7867 0.0878142 11.749 0.0663112C11.74 0.0610604 11.731 0.0565598 11.7215 0.0518091C11.6832 0.0330565 11.644 0.0178044 11.603 0.00930316C11.6017 0.00905313 11.601 0.00880309 11.6 0.00855306C11.5572 5.18607e-05 11.5137 -0.00119831 11.4702 0.00155207C11.4607 0.00205214 11.4512 0.00305228 11.4417 0.00430246C11.3977 0.0095532 11.3539 0.0188045 11.3122 0.0358069L0.310883 4.53644C0.114605 4.6167 -0.009662 4.81198 0.000589438 5.02351C0.0108409 5.23529 0.153361 5.41756 0.35664 5.47832L5.09931 6.90127L6.52201 11.6439C6.58302 11.847 6.76529 11.9895 6.97682 11.9997C6.98507 12 6.99307 12.0002 7.00132 12.0002C7.20335 12.0002 7.38688 11.8782 7.46414 11.6894L11.9648 0.687899C11.9648 0.687648 11.9648 0.687648 11.9648 0.687398C11.9815 0.646393 11.9905 0.603637 11.9958 0.560381C11.997 0.549629 11.9983 0.539128 11.9988 0.528376C12.0013 0.48587 12.0003 0.443114 11.992 0.401108ZM1.99862 4.92649L9.39066 1.90232L5.35859 5.93464L1.99862 4.92649ZM7.07358 10.002L6.06569 6.64174L10.0975 2.60992L7.07358 10.002Z" fill="#5CCFFF"/>
<path d="M4.35422 7.64597C4.15894 7.45069 3.8424 7.45069 3.64712 7.64597L2.39695 8.89616C2.20167 9.09144 2.20167 9.40799 2.39695 9.60327C2.49471 9.70103 2.62248 9.74979 2.7505 9.74979C2.87851 9.74979 3.00628 9.70103 3.10405 9.60327L4.35422 8.35308C4.5495 8.1578 4.5495 7.84125 4.35422 7.64597Z" fill="#5CCFFF"/>
<path d="M1.60415 7.64597C1.40888 7.45069 1.09233 7.45069 0.897054 7.64597L0.146947 8.39607C-0.0483312 8.59135 -0.0483312 8.90789 0.146947 9.10317C0.244711 9.20094 0.372479 9.24969 0.500497 9.24969C0.628515 9.24969 0.756284 9.20094 0.854048 9.10317L1.60415 8.35307C1.79943 8.15779 1.79943 7.84125 1.60415 7.64597Z" fill="#5CCFFF"/>
<path d="M4.35415 10.3962C4.15887 10.2009 3.84233 10.2009 3.64705 10.3962L2.89695 11.1463C2.70167 11.3416 2.70167 11.6581 2.89695 11.8534C2.99471 11.9512 3.12248 11.9999 3.2505 11.9999C3.37851 11.9999 3.50628 11.9512 3.60405 11.8534L4.35415 11.1033C4.54943 10.908 4.54943 10.5915 4.35415 10.3962Z" fill="#5CCFFF"/>
</svg>
