<svg width="38" height="38" viewBox="0 0 38 38" fill="none" xmlns="http://www.w3.org/2000/svg">
<g filter="url(#filter0_d_1_449)">
<circle cx="19" cy="15" r="15" fill="white"/>
</g>
<path d="M11.2579 14.2662C11.2579 14.2662 12.0085 15.369 13.5818 16.3024C13.5818 16.3024 12.4424 6.67248 19.8666 5C17.9645 11.9811 22.2861 13.9498 23.8614 10.2616C26.4922 13.774 24.4948 16.8384 24.4948 16.8384C25.5735 16.9939 26.4796 15.8153 26.4796 15.8153C26.4877 15.9605 26.4922 16.1067 26.4922 16.2539C26.4923 20.5319 23.0242 24 18.7461 24C14.4681 24 11 20.5319 11 16.2539C11 15.5667 11.09 14.9006 11.2579 14.2662Z" fill="#FF6536"/>
<path d="M26.4795 15.8153C26.4795 15.8153 25.5733 16.9939 24.4946 16.8384C24.4946 16.8384 26.4921 13.774 23.8613 10.2616C22.286 13.9498 17.9643 11.9811 19.8664 5C19.4688 5.08958 19.0959 5.20213 18.746 5.33465V24C23.024 24 26.4921 20.5319 26.4921 16.2539C26.4921 16.1067 26.4876 15.9605 26.4795 15.8153Z" fill="#FF421D"/>
<path d="M15.3489 20.6029C15.3489 22.479 16.8699 24 18.7461 24C20.6222 24 22.1432 22.479 22.1432 20.6029C22.1432 19.5986 21.7075 18.6962 21.0148 18.0743C19.7013 19.8587 17.8296 17.1519 19.2883 15.1752C19.2883 15.1752 15.3489 15.6689 15.3489 20.6029Z" fill="#FBBF00"/>
<path d="M22.1431 20.6029C22.1431 19.5986 21.7074 18.6962 21.0147 18.0743C19.7012 19.8587 17.8295 17.1519 19.2882 15.1752C19.2882 15.1752 19.0742 15.2021 18.746 15.3057V24C20.6221 24 22.1431 22.479 22.1431 20.6029Z" fill="#FFA900"/>
<defs>
<filter id="filter0_d_1_449" x="0" y="0" width="38" height="38" filterUnits="userSpaceOnUse" color-interpolation-filters="sRGB">
<feFlood flood-opacity="0" result="BackgroundImageFix"/>
<feColorMatrix in="SourceAlpha" type="matrix" values="0 0 0 0 0 0 0 0 0 0 0 0 0 0 0 0 0 0 127 0" result="hardAlpha"/>
<feOffset dy="4"/>
<feGaussianBlur stdDeviation="2"/>
<feColorMatrix type="matrix" values="0 0 0 0 0 0 0 0 0 0 0 0 0 0 0 0 0 0 0.25 0"/>
<feBlend mode="normal" in2="BackgroundImageFix" result="effect1_dropShadow_1_449"/>
<feBlend mode="normal" in="SourceGraphic" in2="effect1_dropShadow_1_449" result="shape"/>
</filter>
</defs>
</svg>
