<svg width="347" height="270" viewBox="0 0 347 270" fill="none" xmlns="http://www.w3.org/2000/svg">
<path opacity="0.45" d="M155.354 269.102C69.5543 269.102 0.000244141 259.129 0.000244141 246.826C0.000244141 234.523 69.5543 224.55 155.354 224.55C241.153 224.55 310.707 234.523 310.707 246.826C310.707 259.129 241.153 269.102 155.354 269.102Z" fill="#E6E6E6"/>
<path d="M228.321 72.3086L230.825 75.8823C231.301 76.5971 231.182 77.4309 230.467 77.9074C230.348 78.0266 230.109 78.1457 229.871 78.1457L226.413 78.8604L228.321 72.3086Z" fill="#F4A28C"/>
<path d="M38.0338 225.741H106.709V243.848H38.0338V225.741Z" fill="#E6E6E6"/>
<path opacity="0.43" d="M53.0564 208.11H121.731V226.217H53.0564V208.11Z" fill="#E6E6E6"/>
<path d="M87.3937 0H223.432V243.848H87.3937V0Z" fill="#C9C9C9"/>
<path d="M99.4357 27.756H212.106V199.414H99.4357V27.756Z" fill="white"/>
<path d="M228.798 66.3522C228.798 66.3522 228.679 75.5248 226.413 81.481C225.579 83.8635 222.836 85.0548 220.452 84.2209C217.471 83.0296 213.775 80.6472 213.298 75.7631L211.391 67.5435C211.033 64.0889 212.821 60.7534 215.921 59.2048C221.525 55.8693 229.155 60.7534 228.798 66.3522Z" fill="#F4A28C"/>
<path opacity="0.08" d="M207.218 54.0824C207.218 54.0824 195.533 48.0071 193.983 64.6845C192.433 81.3619 191.36 93.0361 178.603 95.2995C165.846 97.5628 143.192 84.8165 132.223 102.923C121.255 121.03 111.359 164.392 132.223 173.088L127.335 199.414H212.106V173.088L213.298 77.5499L207.218 54.0824Z" fill="black"/>
<path d="M212.583 69.6878L197.202 95.8952L212.225 102.924L217.233 81.7194L212.583 69.6878Z" fill="#F4A28C"/>
<path d="M210.079 69.5687L209.483 75.0484C212.106 76.3588 215.444 75.6441 217.233 73.3807C219.14 70.9982 219.498 67.7818 218.067 65.042C218.067 65.042 218.902 68.4966 222.002 66.8288C225.102 65.1611 227.009 65.3994 226.89 67.6627C226.771 69.9261 230.705 70.1643 232.732 65.995C234.759 61.8256 228.44 62.8977 230.586 60.5153C232.732 58.1328 235.594 56.7033 232.017 53.9634C228.44 51.2235 228.44 56.3459 226.055 53.3678C223.671 50.3897 223.671 47.4116 219.259 48.3646C214.848 49.3176 217.233 53.8443 213.06 52.5339C208.887 51.2235 207.456 52.0574 206.383 56.7033C205.787 59.6814 205.31 61.9447 206.621 62.8977C209.006 64.2081 210.317 66.8288 210.079 69.5687Z" fill="#24285B"/>
<path d="M218.187 73.1425C218.187 73.1425 218.425 69.5687 215.802 69.5687C213.179 69.5687 212.702 74.6911 216.16 75.5249L218.187 73.1425Z" fill="#F4A28C"/>
<path d="M206.538 106.415C206.538 106.415 240.326 99.2026 256.437 139.326L286.658 104.558L294.692 112.187L253.723 171.769C253.805 171.682 215.176 144.375 206.538 106.415Z" fill="#165FFC"/>
<path opacity="0.2" d="M206.535 106.466C206.535 106.466 240.327 99.2726 256.416 139.405L286.655 104.654L294.685 112.287L253.683 171.846C253.765 171.76 215.238 144.513 206.535 106.466Z" fill="white"/>
<path opacity="0.31" d="M217.113 82.315C215.444 81.1238 214.133 79.456 213.417 77.55C213.417 77.55 209.602 82.9106 215.683 88.3903L217.113 82.315Z" fill="#CE8172"/>
<path d="M197.202 95.8951C197.202 95.8951 158.692 79.9325 155.473 106.735C152.253 133.538 147.961 180.593 147.961 180.593L199.706 191.671C199.706 191.671 249.185 121.15 212.225 102.923L197.202 95.8951Z" fill="#165FFC"/>
<path opacity="0.08" d="M183.73 104.115C183.73 104.115 189.453 134.134 170.972 150.097L199.587 151.884L213.417 168.085L199.587 191.671L147.723 180.593L149.631 160.342L151.538 134.73L183.73 104.115Z" fill="black"/>
<path d="M221.763 132.109H195.772L193.983 168.085H220.094L221.763 132.109Z" fill="#01A9EF"/>
<path d="M183.729 108.522C185.041 101.017 180.033 93.9891 172.522 92.6788C170.018 92.2023 167.395 92.5596 165.011 93.5126C160.122 95.5378 155.83 98.7541 152.73 103.043C141.165 118.41 124.116 145.808 136.396 156.172C148.677 166.536 187.664 156.172 187.664 156.172V146.642L158.692 143.902C158.692 143.783 179.914 129.369 183.729 108.522Z" fill="#165FFC"/>
<path opacity="0.08" d="M203.521 150.097C203.521 150.097 207.694 163.915 220.571 158.078L220.094 168.204H193.983L194.579 155.219L203.521 150.097Z" fill="black"/>
<path opacity="0.2" d="M183.729 108.522C185.041 101.017 180.033 93.9891 172.522 92.6788C170.018 92.2023 167.395 92.5596 165.011 93.5126C160.122 95.5378 155.83 98.7541 152.73 103.043C141.165 118.41 124.116 145.808 136.396 156.172C148.677 166.536 187.664 156.172 187.664 156.172V146.642L158.692 143.902C158.811 143.783 179.914 129.369 183.729 108.522Z" fill="white"/>
<path d="M187.784 146.523C191.599 146.166 195.414 146.047 199.229 146.404C202.21 146.642 204.356 149.263 204.118 152.241C204.118 152.956 203.879 153.551 203.641 154.147L203.522 154.266C202.448 156.41 199.945 157.363 197.679 156.291C197.679 156.291 197.56 156.291 197.56 156.172C194.579 154.504 190.883 154.385 187.784 156.053V146.523Z" fill="#F4A28C"/>
<path d="M199.706 191.671L147.842 180.712L146.054 199.414H199.706V191.671Z" fill="#FFC107"/>
<path d="M30.4031 33.2358H155.83V84.4593H30.4031V33.2358Z" fill="#01A9EF"/>
<path d="M0.00012207 96.2526H125.427V147.476H0.00012207V96.2526Z" fill="#165FFC"/>
<path opacity="0.56" d="M154.996 234.675C147.621 234.675 141.642 228.702 141.642 221.333C141.642 213.965 147.621 207.991 154.996 207.991C162.371 207.991 168.349 213.965 168.349 221.333C168.349 228.702 162.371 234.675 154.996 234.675Z" fill="white"/>
<path opacity="0.12" d="M128.766 9.53H166.919V15.1288H128.766V9.53Z" fill="black"/>
<path d="M180.749 19.06C177.325 19.06 174.549 16.2866 174.549 12.8655C174.549 9.44438 177.325 6.67102 180.749 6.67102C184.173 6.67102 186.949 9.44438 186.949 12.8655C186.949 16.2866 184.173 19.06 180.749 19.06Z" fill="white"/>
<path d="M287.777 107.006L280.987 98.1216C280.201 97.1946 280.475 95.8904 281.403 95.1042C281.718 94.8979 282.034 94.6917 282.369 94.6529C282.945 94.5012 283.56 94.6845 284.027 95.0545L288.32 98.4592L291.161 96.603C293.276 95.0852 296.219 95.5925 297.808 97.614L299.398 99.6354C300.875 101.415 300.904 103.872 299.683 105.795L294.983 112.872L287.703 107.099L287.777 107.006Z" fill="#F4A28C"/>
<path opacity="0.17" d="M127.335 72.5466C119.433 72.5466 113.028 66.1466 113.028 58.2517C113.028 50.3568 119.433 43.9568 127.335 43.9568C135.237 43.9568 141.642 50.3568 141.642 58.2517C141.642 66.1466 135.237 72.5466 127.335 72.5466Z" fill="black"/>
<path opacity="0.09" d="M53.4143 48.0072H97.7669V55.3929H53.4143V48.0072Z" fill="black"/>
<path opacity="0.09" d="M53.4143 61.8256H97.7669V69.2113H53.4143V61.8256Z" fill="black"/>
<path opacity="0.61" d="M21.2228 109.118H65.5754V116.385H21.2228V109.118Z" fill="white"/>
<path opacity="0.21" d="M21.2228 122.936H65.5754V130.203H21.2228V122.936Z" fill="white"/>
<path opacity="0.61" d="M113.028 138.184L103.848 113.049L95.1439 132.109L87.3941 119.601L79.2866 138.184H113.028Z" fill="white"/>
<path opacity="0.61" d="M94.5477 114.002C92.8356 114.002 91.4478 112.615 91.4478 110.905C91.4478 109.194 92.8356 107.808 94.5477 107.808C96.2597 107.808 97.6476 109.194 97.6476 110.905C97.6476 112.615 96.2597 114.002 94.5477 114.002Z" fill="white"/>
<g clip-path="url(#clip0_1_241)">
<path d="M291.232 93.3629L290.294 98.1777L288.726 106.224H283.265L283.806 96.1962L284.078 91.176L291.232 93.3629Z" fill="#01A9EF"/>
<path d="M291.232 93.3879L290.337 98.2577L288.592 97.6917L284.151 96.2535L284.409 91.176L291.232 93.3879Z" fill="#5CCFFF"/>
<path d="M281.296 80.5145H274.413V91.8619H281.256" fill="#01A9EF"/>
<path d="M320.163 80.6003L320.164 80.6014C321.595 80.6018 323.025 81.1474 324.117 82.239C326.301 84.4225 326.302 87.9613 324.119 90.1436C323.028 91.2348 321.598 91.7796 320.167 91.7792L320.166 91.7803" fill="#FED159"/>
<path d="M324.119 87.6664C323.028 88.7576 321.598 89.3024 320.167 89.302L320.166 89.3031L320.164 80.601L320.163 80.6004L320.166 91.7807L320.167 91.7796C321.598 91.78 323.028 91.2352 324.119 90.144C325.527 88.7359 326.025 86.7638 325.616 84.9548C325.391 85.9483 324.893 86.8927 324.119 87.6664Z" fill="#F6C454"/>
<path d="M313.014 101.025L309.012 100.215L295.882 97.5578L290.502 96.4677L282.429 94.8337L281.746 94.6951L277.683 93.8717L277.75 78.4711L309.004 72.159L313.007 71.3507L313.014 101.025Z" fill="#165FFC"/>
<path d="M313.014 101.025L309.012 100.215L309.004 72.159L313.007 71.3507L313.014 101.025Z" fill="#4980F4"/>
<path d="M277.705 88.9531L312.868 93.5289L313.015 101.026L277.684 93.8713L277.705 88.9531Z" fill="#4980F4"/>
<path d="M320.805 104.314L320.798 104.315L312.38 105.629L312.379 101.025L312.378 96.2884L312.371 71.3507L312.37 66.7488L320.796 68.0677L320.798 80.6007L320.802 91.7803L320.805 104.314Z" fill="#01A9EF"/>
<path d="M320.798 104.315L312.38 105.629L312.379 97.8487L320.797 97.6074L320.798 104.315Z" fill="#5CCFFF"/>
</g>
<line x1="328.64" y1="72.3571" x2="334.378" y2="72.3571" stroke="#FFC107" stroke-width="4" stroke-linecap="round"/>
<line x1="332.181" y1="84.75" x2="345" y2="84.75" stroke="#FFC107" stroke-width="4" stroke-linecap="round"/>
<line x1="328.64" y1="96.2577" x2="336.148" y2="96.2577" stroke="#FFC107" stroke-width="4" stroke-linecap="round"/>
<path d="M223.957 80.7774C223.957 79.3611 226.022 79.5971 227.055 79.8922L227.94 82.5479L226.17 82.9905C225.432 82.8429 223.957 82.1937 223.957 80.7774Z" fill="white"/>
<defs>
<clipPath id="clip0_1_241">
<rect width="51.3418" height="51.3418" fill="white" transform="translate(274.413 61.9643)"/>
</clipPath>
</defs>
</svg>
