<svg width="330" height="309" viewBox="0 0 330 309" fill="none" xmlns="http://www.w3.org/2000/svg">
<path d="M270.42 39.5329H65.9681V197.307H270.42V39.5329Z" fill="#E6E6E6"/>
<path d="M255.178 51.3214H81.2095V185.519H255.178V51.3214Z" fill="#C9C9C9"/>
<path opacity="0.1" d="M132.769 130.864L145.272 137.294L137.175 153.012L145.272 156.465L124.672 197.308H87.1632L91.0927 161.942L96.9274 151.94L111.574 130.864H126.815H132.769Z" fill="black"/>
<path d="M82.8758 162.419L103.833 136.341L108.239 140.39L90.4966 170.039L82.8758 162.419Z" fill="#165FFC"/>
<path opacity="0.45" d="M150.868 309C234.19 309 301.736 300.417 301.736 289.829C301.736 279.241 234.19 270.658 150.868 270.658C67.546 270.658 0 279.241 0 289.829C0 300.417 67.546 309 150.868 309Z" fill="#E6E6E6"/>
<path opacity="0.58" d="M251.725 268.157C251.725 268.157 239.818 264.942 237.198 253.868C237.198 253.868 255.536 250.058 256.25 269.11L251.725 268.157Z" fill="#00A300"/>
<path opacity="0.73" d="M253.154 266.967C253.154 266.967 244.819 253.868 252.082 241.604C252.082 241.604 266.133 250.415 259.941 266.967H253.154Z" fill="#00A300"/>
<path d="M255.298 266.966C255.298 266.966 259.584 253.154 272.921 250.415C272.921 250.415 275.421 259.346 264.466 266.966H255.298Z" fill="#00A300"/>
<path d="M246.724 266.609L249.225 283.161H264.347L266.49 266.609H246.724Z" fill="#24285B"/>
<path d="M48.345 119.551L52.1554 131.102L43.1057 136.936L39.7716 116.932L48.345 119.551Z" fill="#F4A28C"/>
<path d="M36.6751 105.739C38.2231 102.047 42.3907 100.38 46.082 101.928C47.0347 102.286 47.8682 103 48.5826 103.714C52.5121 107.882 57.156 114.431 51.9167 118.003C43.8196 123.481 36.3179 113.24 36.3179 113.24C35.6034 110.74 35.7225 108.12 36.6751 105.739Z" fill="#F4A28C"/>
<path d="M42.6291 112.883C42.6291 112.883 40.4858 111.097 39.6523 113.598C38.8187 116.098 42.391 117.289 43.4627 115.979C44.5343 114.669 42.6291 112.883 42.6291 112.883Z" fill="#F4A28C"/>
<path d="M32.3881 142.652C35.1269 136.46 40.4853 131.816 47.0344 129.792C59.4182 126.101 82.2806 130.149 89.3061 141.818C98.8321 157.775 84.9003 208.262 84.9003 208.262L43.224 211.477C43.224 211.477 20.2425 170.039 32.3881 142.652Z" fill="#165FFC"/>
<path d="M84.9004 208.143L79.4229 279.946H70.7304L62.9905 224.218L43.8194 211.477L84.9004 208.143Z" fill="#FFC107"/>
<path d="M43.8199 211.477L31.7933 279.946H41.0812L61.2049 223.028L43.8199 211.477Z" fill="#FFB207"/>
<path opacity="0.08" d="M50.7262 128.72C50.7262 128.72 31.1979 191.592 87.6395 195.76L84.9008 208.143L43.2245 211.358C43.2245 211.358 28.5783 188.258 29.1736 155.869C29.1736 155.869 29.5309 139.794 40.843 132.769C43.8199 130.744 47.154 129.316 50.7262 128.72Z" fill="black"/>
<path d="M33.9361 279.827L28.3396 283.994C27.7442 284.351 27.5061 285.066 27.8633 285.661C28.1014 286.138 28.5777 286.376 29.054 286.257H38.461C39.1754 286.257 39.6517 285.78 39.6517 285.066V279.827H33.9361Z" fill="#24285B"/>
<path d="M78.3519 279.827L83.5912 283.994C84.1866 284.351 84.4247 285.066 84.0675 285.542C83.8294 286.019 83.3531 286.257 82.7577 286.138H76.0895C74.0652 286.138 72.5172 284.59 72.5172 282.565V279.827H78.3519Z" fill="#24285B"/>
<path d="M67.6342 129.435C63.3475 136.222 63.3475 144.914 67.6342 151.702C72.1591 159.323 85.3764 174.326 94.4261 184.209C97.9984 188.139 103.952 188.377 107.882 184.924C108.715 184.209 109.311 183.376 109.787 182.423L129.196 148.129L122.647 143.843L104.786 169.92C104.905 170.039 92.7591 129.911 67.6342 129.435Z" fill="#165FFC"/>
<path opacity="0.2" d="M67.754 129.435C63.4673 136.222 63.4673 144.914 67.754 151.702C72.2788 159.323 85.4962 174.326 94.5459 184.209C98.1181 188.139 104.072 188.377 108.001 184.924C108.835 184.209 109.43 183.376 109.907 182.423L129.316 148.129L122.767 143.843L104.905 169.92C105.025 170.039 92.8788 129.911 67.754 129.435Z" fill="white"/>
<path d="M216.24 120.623V185.519" stroke="#E6E6E6" stroke-width="7" stroke-miterlimit="10"/>
<path d="M127.053 146.701C127.053 146.701 138.127 142.652 133.602 136.341C129.077 130.03 122.766 143.843 122.766 143.843L127.053 146.701Z" fill="#F4A28C"/>
<path d="M127.199 124.007L120.676 138.569L130.674 143.047L137.197 128.485L127.199 124.007Z" fill="#FFD200"/>
<path opacity="0.1" d="M203.5 39.5329H258.632V40.8427L231.125 87.7583H217.194L203.5 39.5329Z" fill="black"/>
<path d="M129.435 96.9272L172.54 133.602" stroke="#E6E6E6" stroke-width="7" stroke-miterlimit="10"/>
<path d="M216.24 120.623L258.631 147.653" stroke="#E6E6E6" stroke-width="7" stroke-miterlimit="10"/>
<path d="M40.3661 120.623L34.1742 114.193C32.8643 112.883 32.1499 110.978 32.2689 109.192C32.388 105.977 33.1025 100.738 35.8412 96.8081C40.1279 90.7352 45.7244 88.3537 47.1533 93.7121C48.5822 99.0705 48.8204 92.7595 52.2736 95.4982C55.7268 98.237 55.0123 99.904 52.2736 101.452C49.5348 103 43.9383 105.143 43.462 109.549C42.9857 113.955 47.1533 117.646 40.3661 120.623Z" fill="#24285B"/>
<path d="M158.965 185.995V150.868L182.78 120.623H216.24V77.3989" stroke="white" stroke-width="7" stroke-miterlimit="10"/>
<path d="M216.24 94.5456C227.749 94.5456 237.078 91.5069 237.078 87.7583C237.078 84.0098 227.749 80.9711 216.24 80.9711C204.731 80.9711 195.402 84.0098 195.402 87.7583C195.402 91.5069 204.731 94.5456 216.24 94.5456Z" fill="#24285B"/>
<path d="M104.786 137.294C104.786 137.294 106.096 127.768 115.384 128.72C124.672 129.673 121.218 132.054 117.527 132.173C115.979 132.531 114.788 133.602 114.312 135.15C113.717 136.817 112.288 138.961 108.239 140.39L104.786 137.294Z" fill="#F4A28C"/>
<path d="M246.843 30.6023C246.843 13.6936 233.149 0 216.36 0C199.451 0 185.757 13.6936 185.757 30.4832C185.757 36.0798 187.305 41.5572 190.282 46.4393L216.36 89.1873L242.318 46.6775C245.295 41.7954 246.843 36.1988 246.843 30.6023ZM216.24 46.7965C208.024 46.7965 201.356 40.1283 201.356 31.9121C201.356 23.696 208.024 17.0277 216.24 17.0277C224.457 17.0277 231.125 23.696 231.125 31.9121C231.244 40.0092 224.576 46.7965 216.24 46.7965Z" fill="#01A9EF"/>
<path d="M77.6372 96.9271H129.435V47.2728" stroke="#E6E6E6" stroke-width="7" stroke-miterlimit="10"/>
<path opacity="0.1" d="M302.57 159.084H227.195V197.307H302.57V159.084Z" fill="black"/>
<path d="M129.435 75.2554H178.256V47.2728" stroke="#E6E6E6" stroke-width="7" stroke-miterlimit="10"/>
<path d="M329.6 159.084H237.078V215.645H329.6V159.084Z" fill="#F2F2F2"/>
<path d="M257.798 192.545C257.798 192.545 256.369 200.403 262.68 199.332C268.991 198.26 266.014 194.926 265.062 190.52L257.798 192.545Z" fill="#00D3FF"/>
<path d="M257.084 188.853L264.466 187.186C264.466 187.186 264.704 181.351 264.466 175.398C264.228 169.444 258.393 164.681 254.464 168.61C250.534 172.54 251.963 180.637 257.084 188.853Z" fill="#00D3FF"/>
<path d="M270.896 199.808C270.896 199.808 266.728 205.643 272.325 207.191C277.921 208.739 276.731 204.809 277.564 200.999L270.896 199.808Z" fill="#00D3FF"/>
<path d="M271.729 196.474L278.278 197.903C278.278 197.903 280.779 193.259 282.684 188.377C284.589 183.495 281.732 177.303 277.088 179.089C272.444 180.875 270.777 187.901 271.729 196.474Z" fill="#00D3FF"/>
<path opacity="0.67" d="M318.406 179.684H296.02V185.876H318.406V179.684Z" fill="#C9C9C9"/>
<path opacity="0.31" d="M318.406 190.758H296.02V196.95H318.406V190.758Z" fill="#C9C9C9"/>
</svg>
