<svg width="363" height="278" viewBox="0 0 363 278" fill="none" xmlns="http://www.w3.org/2000/svg">
<path opacity="0.45" d="M181.5 277.215C281.74 277.215 363 266.127 363 252.449C363 238.771 281.74 227.682 181.5 227.682C81.2603 227.682 0 238.771 0 252.449C0 266.127 81.2603 277.215 181.5 277.215Z" fill="#E6E6E6"/>
<path d="M221.222 0H84.7081V244.911H221.222V0Z" fill="#C9C9C9"/>
<path d="M209.019 27.8772H95.955V200.284H209.019V27.8772Z" fill="white"/>
<path opacity="0.56" d="M153.383 235.699C160.784 235.699 166.784 229.699 166.784 222.299C166.784 214.898 160.784 208.898 153.383 208.898C145.983 208.898 139.983 214.898 139.983 222.299C139.983 229.699 145.983 235.699 153.383 235.699Z" fill="white"/>
<path opacity="0.12" d="M179.706 9.57153H141.42V15.1948H179.706V9.57153Z" fill="black"/>
<path d="M127.54 19.1432C130.976 19.1432 133.762 16.3577 133.762 12.9217C133.762 9.48565 130.976 6.7002 127.54 6.7002C124.104 6.7002 121.319 9.48565 121.319 12.9217C121.319 16.3577 124.104 19.1432 127.54 19.1432Z" fill="white"/>
<path d="M153.146 178.509C188.233 178.509 216.677 150.065 216.677 114.978C216.677 79.8908 188.233 51.447 153.146 51.447C118.059 51.447 89.6153 79.8908 89.6153 114.978C89.6153 150.065 118.059 178.509 153.146 178.509Z" fill="#E6E6E6"/>
<path d="M106.243 73.4617C106.243 73.4617 106.842 82.6743 113.063 79.9225C119.404 77.1707 127.779 74.1796 126.942 84.2297C125.985 94.2798 131.01 95.7155 138.188 93.203C145.247 90.6905 141.897 89.9726 142.256 80.8796C142.615 71.7867 130.771 71.3081 132.685 64.8474C134.599 58.3866 148.837 66.0438 143.812 52.2847C143.812 52.1651 118.806 54.199 106.243 73.4617Z" fill="#C9C9C9"/>
<path d="M159.127 97.2705C157.811 97.2705 156.495 97.5098 155.298 98.108C152.786 99.3045 149.795 102.176 151.47 109.115C154.222 120.123 158.768 111.987 164.75 113.303C170.732 114.619 184.252 116.055 177.552 128.139C170.852 140.342 178.509 142.855 184.85 139.864C191.311 136.873 186.884 125.028 193.585 130.292C200.285 135.557 192.627 152.187 208.779 145.846C208.779 145.846 227.444 117.61 208.779 84.349C208.779 84.349 200.285 68.197 193.704 73.9399C187.124 79.6829 196.217 80.0418 197.174 86.6222C198.131 93.2026 194.183 101.219 188.918 93.8008C183.654 86.3829 185.449 87.1008 176.954 86.1436C170.134 85.4258 165.468 86.2633 165.349 92.0062C165.349 94.9973 162.836 97.3902 159.845 97.3902L159.127 97.2705Z" fill="#C9C9C9"/>
<path d="M157.451 61.4974C157.451 61.4974 150.871 59.7028 150.991 67.7189C151.11 75.7351 155.417 75.2565 160.203 73.2225C164.989 71.1886 160.921 77.769 170.014 75.9744C179.227 74.1797 179.825 72.0261 177.791 68.7957C175.757 65.685 172.407 53.4813 157.451 61.4974Z" fill="#C9C9C9"/>
<path d="M89.6132 114.978C89.6132 114.978 97.39 102.296 105.885 110.91C114.38 119.524 97.749 118.089 106.244 126.344C114.738 134.6 120.721 115.457 125.506 122.755C130.292 130.053 139.744 134.959 128.737 141.419C117.73 147.88 124.31 156.734 129.335 154.819C134.48 152.905 143.453 165.827 129.335 173.843C129.455 173.843 87.8185 158.648 89.6132 114.978Z" fill="#C9C9C9"/>
<path d="M156.135 129.575C156.135 129.575 147.401 129.575 147.401 137.83C147.401 146.086 163.673 138.309 159.844 147.163C156.016 156.136 164.989 158.529 169.894 154.82C174.8 151.111 166.305 139.864 167.142 131.968C167.98 124.071 157.092 125.866 156.135 129.575Z" fill="#C9C9C9"/>
<path d="M153.264 178.509C153.264 178.509 147.64 172.527 159.844 171.211C172.048 169.895 172.407 163.434 176.355 160.682C180.303 157.93 188.798 167.621 188.798 167.621C188.798 167.621 173.125 181.739 153.264 178.509Z" fill="#C9C9C9"/>
<path opacity="0.08" d="M135.916 104.449L144.769 103.014L139.146 125.267L133.284 126.464C130.651 127.062 128.378 128.737 127.301 131.25C124.31 137.591 117.251 150.632 107.321 159.486C107.321 159.486 92.0065 146.086 89.9725 124.55L99.7833 106.244L107.321 105.765L135.916 104.449Z" fill="black"/>
<path d="M147.641 77.7688C154.249 77.7688 159.605 76.0547 159.605 73.9402C159.605 71.8257 154.249 70.1116 147.641 70.1116C141.033 70.1116 135.676 71.8257 135.676 73.9402C135.676 76.0547 141.033 77.7688 147.641 77.7688Z" fill="#24285B"/>
<path d="M60.5398 156.494H98.7063C99.7831 156.494 100.621 157.691 100.621 159.007V185.089C100.621 186.525 99.7831 187.602 98.7063 187.602H60.5398C59.463 187.602 58.6255 186.405 58.6255 185.089V159.007C58.7452 157.571 59.5827 156.494 60.5398 156.494Z" fill="#F2F2F2"/>
<path d="M95.4752 176.475H63.1713V179.107H95.4752V176.475Z" fill="white"/>
<path opacity="0.46" d="M77.05 180.662H63.1713V183.295H77.05V180.662Z" fill="white"/>
<path opacity="0.46" d="M62.4529 158.767H96.9103C97.3889 158.767 97.8675 159.246 97.8675 159.725V172.527C97.8675 173.005 97.3889 173.484 96.9103 173.484H62.4529C61.9743 173.484 61.4957 173.005 61.4957 172.527V159.725C61.4957 159.246 61.8546 158.767 62.4529 158.767Z" fill="white"/>
<path d="M147.522 52.5238C153.535 52.5238 158.409 47.6492 158.409 41.6361C158.409 35.6231 153.535 30.7485 147.522 30.7485C141.508 30.7485 136.634 35.6231 136.634 41.6361C136.634 47.6492 141.508 52.5238 147.522 52.5238Z" fill="white"/>
<path d="M12.5624 120.84H71.3077C72.863 120.84 74.1791 122.635 74.1791 124.789V165.109C74.1791 167.262 72.863 169.057 71.3077 169.057H12.5624C11.0071 169.057 9.69098 167.262 9.69098 165.109V124.789C9.69098 122.515 10.8874 120.84 12.5624 120.84Z" fill="#F2F2F2"/>
<path d="M66.4015 151.589H16.5099V155.657H66.4015V151.589Z" fill="white"/>
<path opacity="0.46" d="M37.9262 158.169H16.5099V162.237H37.9262V158.169Z" fill="white"/>
<path opacity="0.46" d="M15.4332 124.31H68.6748C69.5123 124.31 70.1105 124.908 70.1105 125.746V145.607C70.1105 146.444 69.5123 147.042 68.6748 147.042H15.4332C14.5957 147.042 13.9974 146.444 13.9974 145.607V125.746C13.9974 125.028 14.5957 124.31 15.4332 124.31Z" fill="white"/>
<path d="M165.228 41.1575C165.228 31.4663 157.451 23.6895 147.76 23.5698C138.069 23.5698 130.292 31.3467 130.173 41.0379C130.173 44.2682 131.01 47.379 132.685 50.1308L147.641 74.6578L162.477 50.2504C164.271 47.6183 165.228 44.3879 165.228 41.1575ZM147.641 50.4897C142.855 50.4897 139.026 46.6611 139.026 41.8754C139.026 37.0896 142.855 33.261 147.641 33.261C152.426 33.261 156.255 37.0896 156.255 41.7557C156.255 46.5415 152.426 50.4897 147.641 50.4897Z" fill="#165FFC"/>
<path d="M23.9288 72.2648H104.928C107.081 72.2648 108.876 74.6576 108.876 77.7684V133.283C108.876 136.274 107.081 138.787 104.928 138.787H23.9288C21.7752 138.787 19.9806 136.394 19.9806 133.283V77.7684C19.8609 74.7773 21.6556 72.2648 23.9288 72.2648Z" fill="url(#paint0_linear_1_16)"/>
<path d="M97.9892 114.739H29.3135V120.362H97.9892V114.739Z" fill="white"/>
<path opacity="0.46" d="M58.7459 123.712H29.3135V129.335H58.7459V123.712Z" fill="white"/>
<path opacity="0.46" d="M27.8775 77.1702H101.1C102.176 77.1702 103.134 78.0077 103.134 79.2041V106.483C103.134 107.56 102.296 108.517 101.1 108.517H27.8775C26.8007 108.517 25.8435 107.679 25.8435 106.483V79.2041C25.8435 78.1273 26.681 77.1702 27.8775 77.1702Z" fill="white"/>
<path opacity="0.08" d="M177.791 102.774L155.298 106.124L156.016 107.56C158.289 112.585 159.485 117.969 159.844 123.592C159.964 126.224 161.519 129.933 166.544 134.241C175.159 141.539 180.662 165.228 192.148 174.441C198.968 180.184 203.036 188.559 203.275 197.413L206.386 244.792H228.52L222.777 167.621L216.914 137.83L202.557 123.114L189.396 106.124L183.414 102.774H177.791Z" fill="black"/>
<path d="M217.034 134.839L195.498 108.038L190.832 112.106L209.137 142.735L217.034 134.839Z" fill="#0033A2"/>
<path d="M252.569 90.6902L248.621 102.655L258.072 108.637L261.422 88.058L252.569 90.6902Z" fill="#F4A28C"/>
<path d="M248.98 89.2546C257.355 94.8779 265.012 84.3492 265.012 84.3492C265.61 81.717 265.49 79.0849 264.653 76.5724C262.978 72.8634 258.671 71.0687 254.962 72.7437" fill="#F4A28C"/>
<path d="M269.079 114.5C266.208 108.159 260.704 103.373 254.004 101.339C241.202 97.5102 217.632 101.698 210.454 113.662C200.643 130.053 215 182.099 215 182.099L257.953 185.449C257.953 185.449 281.522 142.736 269.079 114.5Z" fill="#165FFC"/>
<path d="M215 182.098L220.624 255.919H229.597L237.494 198.489L257.354 185.448L215 182.098Z" fill="#FFC107"/>
<path d="M257.355 185.448L269.678 255.919H260.107L239.289 197.293L257.355 185.448Z" fill="#FFC107"/>
<path opacity="0.08" d="M250.176 100.142C250.176 100.142 270.276 164.869 212.249 169.177L215 182.098L257.953 185.448C257.953 185.448 273.147 161.639 272.429 128.258C272.429 128.258 272.071 111.747 260.465 104.449C257.354 102.296 253.885 100.86 250.176 100.142Z" fill="black"/>
<path d="M267.404 255.799L273.147 260.106C273.745 260.585 273.865 261.303 273.386 261.901C273.147 262.26 272.788 262.379 272.429 262.379H262.738C262.02 262.379 261.422 261.781 261.422 261.063V255.799H267.404Z" fill="#24285B"/>
<path d="M232.708 100.98C237.135 108.039 237.135 116.892 232.708 123.951C228.042 131.848 214.402 147.282 205.07 157.452C201.361 161.52 195.14 161.759 191.191 158.05C190.354 157.332 189.756 156.494 189.277 155.537L169.177 120.242L175.997 115.935L194.422 142.855C194.182 142.735 206.865 101.458 232.708 100.98Z" fill="#165FFC"/>
<path d="M221.7 255.799L216.196 260.106C215.598 260.585 215.479 261.303 215.957 261.901C216.196 262.26 216.555 262.379 217.034 262.379H223.973C226.007 262.379 227.682 260.824 227.682 258.79C227.682 258.79 227.682 258.79 227.682 258.671V255.799H221.7Z" fill="#24285B"/>
<path opacity="0.08" d="M232.708 100.98C237.135 108.039 237.135 116.892 232.708 123.951C228.042 131.848 214.402 147.282 205.07 157.452C201.361 161.52 195.14 161.759 191.191 158.05C190.354 157.332 189.756 156.494 189.277 155.537L169.177 120.242L175.997 115.935L194.422 142.855C194.182 142.735 206.865 101.458 232.708 100.98Z" fill="black"/>
<path d="M171.45 118.687C171.45 118.687 160.084 114.499 164.75 108.039C169.416 101.578 175.877 115.815 175.877 115.815L171.45 118.687Z" fill="#F4A28C"/>
<path d="M260.824 91.767L267.165 85.1866C268.481 83.7509 269.199 81.9562 269.08 80.0419C268.96 76.6919 268.242 71.3079 265.49 67.3596C261.183 61.0185 255.321 58.7453 253.885 64.1292C252.449 69.6329 252.09 63.1721 248.621 66.0435C245.151 68.915 245.869 70.59 248.621 72.1454C251.372 73.7008 257.235 75.8544 257.713 80.5205C258.192 85.1866 253.885 88.6563 260.824 91.767Z" fill="#24285B"/>
<path d="M194.421 108.995C194.421 108.995 192.985 99.1845 183.533 100.142C174.081 101.099 177.431 103.492 181.38 103.731C182.935 104.09 184.251 105.286 184.73 106.842C185.328 108.517 186.883 110.79 190.951 112.226L194.421 108.995Z" fill="#F4A28C"/>
<path d="M201.241 97.7494L190.234 72.3849L183.055 81.5975L169.177 74.8974L163.075 85.1868L148 83.0332L156.973 111.867L171.569 115.576L178.27 104.569L192.268 108.398L201.241 97.7494Z" fill="#01A9EF"/>
<path opacity="0.2" d="M189.517 78.6063L197.533 96.4333L190.833 104.689L176.476 99.903L170.613 112.585L159.486 109.474L152.308 86.7421L165.229 88.8957L170.613 78.6063L183.655 85.3064L189.517 78.6063Z" fill="white"/>
<path opacity="0.08" d="M183.056 81.5976L192.269 108.398L178.27 104.569L169.177 74.8976L183.056 81.5976Z" fill="black"/>
<path opacity="0.08" d="M163.075 85.1867L171.57 115.576L156.973 111.867L148 83.0331L163.075 85.1867Z" fill="black"/>
<path opacity="0.9" d="M39.2437 232.947C39.2437 232.947 24.7668 229.118 21.656 215.599C21.656 215.599 44.0294 210.933 44.7473 234.024L39.2437 232.947Z" fill="#22B573"/>
<path opacity="0.5" d="M40.9176 231.511C40.9176 231.511 30.7478 215.599 39.6015 200.643C39.6015 200.643 56.5909 211.411 49.173 231.511H40.9176Z" fill="#22B573"/>
<path opacity="0.7" d="M43.5505 231.511C43.5505 231.511 48.8148 214.641 64.8471 211.411C64.8471 211.411 67.9578 222.299 54.5577 231.511H43.5505Z" fill="#22B573"/>
<path d="M33.1414 231.152L36.1325 251.133H54.5576L57.1898 231.152H33.1414Z" fill="#724A4A"/>
<defs>
<linearGradient id="paint0_linear_1_16" x1="64.0018" y1="62.2258" x2="64.6537" y2="132.958" gradientUnits="userSpaceOnUse">
<stop stop-color="#165FFC"/>
<stop offset="1" stop-color="#01A9EF"/>
</linearGradient>
</defs>
</svg>
