<svg width="26" height="79" viewBox="0 0 26 79" fill="none" xmlns="http://www.w3.org/2000/svg">
<rect x="26" y="79" width="26" height="79" transform="rotate(-180 26 79)" fill="#EEEEEE"/>
<path d="M17.4449 39.3757L10.3247 32.2556C10.1601 32.0908 9.94021 32 9.70581 32C9.47141 32 9.25157 32.0908 9.08689 32.2556L8.56253 32.7798C8.22133 33.1214 8.22133 33.6766 8.56253 34.0177L14.5415 39.9967L8.5559 45.9823C8.39122 46.1471 8.30029 46.3668 8.30029 46.6011C8.30029 46.8357 8.39122 47.0554 8.5559 47.2203L9.08025 47.7444C9.24506 47.9092 9.46477 48 9.69917 48C9.93358 48 10.1534 47.9092 10.3181 47.7444L17.4449 40.6178C17.61 40.4525 17.7007 40.2317 17.7002 39.9971C17.7007 39.7615 17.61 39.5409 17.4449 39.3757Z" fill="#1A1445" fill-opacity="0.6"/>
</svg>
