<svg width="205" height="63" viewBox="0 0 205 63" fill="none" xmlns="http://www.w3.org/2000/svg">
<path d="M12.36 42.64C10.7867 42.64 9.32 42.4267 7.96 42C6.62667 41.5467 5.45333 40.88 4.44 40C3.45333 39.12 2.66667 38.0133 2.08 36.68C1.52 35.3467 1.24 33.7867 1.24 32C1.24 30.24 1.52 28.7333 2.08 27.48C2.66667 26.2 3.42667 25.16 4.36 24.36C5.29333 23.5333 6.36 22.9333 7.56 22.56C8.76 22.16 9.98667 21.96 11.24 21.96C12.6533 21.96 13.9333 22.1733 15.08 22.6C16.2533 23.0267 17.2533 23.6133 18.08 24.36C18.9333 25.1067 19.5867 26 20.04 27.04C20.52 28.08 20.76 29.2133 20.76 30.44C20.76 31.3467 20.5067 32.04 20 32.52C19.4933 33 18.7867 33.3067 17.88 33.44L8 34.92C8.29333 35.8 8.89333 36.4667 9.8 36.92C10.7067 37.3467 11.7467 37.56 12.92 37.56C14.0133 37.56 15.04 37.4267 16 37.16C16.9867 36.8667 17.7867 36.5333 18.4 36.16C18.8267 36.4267 19.1867 36.8 19.48 37.28C19.7733 37.76 19.92 38.2667 19.92 38.8C19.92 40 19.36 40.8933 18.24 41.48C17.3867 41.9333 16.4267 42.24 15.36 42.4C14.2933 42.56 13.2933 42.64 12.36 42.64ZM11.24 26.92C10.6 26.92 10.04 27.0267 9.56 27.24C9.10667 27.4533 8.73333 27.7333 8.44 28.08C8.14667 28.4 7.92 28.7733 7.76 29.2C7.62667 29.6 7.54667 30.0133 7.52 30.44L14.36 29.32C14.28 28.7867 13.9867 28.2533 13.48 27.72C12.9733 27.1867 12.2267 26.92 11.24 26.92ZM36.8769 41.48C36.5035 41.7733 35.9569 42.0133 35.2369 42.2C34.5169 42.3867 33.7035 42.48 32.7969 42.48C31.7569 42.48 30.8502 42.3467 30.0769 42.08C29.3302 41.8133 28.8102 41.3867 28.5169 40.8C28.2769 40.3467 27.9835 39.72 27.6369 38.92C27.3169 38.0933 26.9702 37.1867 26.5969 36.2C26.2235 35.1867 25.8369 34.1067 25.4369 32.96C25.0369 31.8133 24.6502 30.68 24.2769 29.56C23.9302 28.44 23.6102 27.36 23.3169 26.32C23.0235 25.28 22.7835 24.36 22.5969 23.56C22.9702 23.1867 23.4635 22.8667 24.0769 22.6C24.7169 22.3067 25.4102 22.16 26.1569 22.16C27.0902 22.16 27.8502 22.36 28.4369 22.76C29.0502 23.1333 29.5035 23.8533 29.7969 24.92L31.3569 31.04C31.6502 32.24 31.9302 33.3333 32.1969 34.32C32.4635 35.28 32.6635 36.0267 32.7969 36.56H32.9969C33.5035 34.5867 34.0369 32.4 34.5969 30C35.1569 27.6 35.6635 25.24 36.1169 22.92C36.5702 22.68 37.0769 22.4933 37.6369 22.36C38.2235 22.2267 38.7835 22.16 39.3169 22.16C40.2502 22.16 41.0369 22.36 41.6769 22.76C42.3169 23.16 42.6369 23.8533 42.6369 24.84C42.6369 25.2667 42.5302 25.8933 42.3169 26.72C42.1302 27.52 41.8769 28.44 41.5569 29.48C41.2635 30.4933 40.9035 31.5733 40.4769 32.72C40.0769 33.8667 39.6635 34.9867 39.2369 36.08C38.8102 37.1733 38.3835 38.2 37.9569 39.16C37.5569 40.0933 37.1969 40.8667 36.8769 41.48ZM55.7584 42.64C54.1851 42.64 52.7184 42.4267 51.3584 42C50.0251 41.5467 48.8518 40.88 47.8384 40C46.8518 39.12 46.0651 38.0133 45.4784 36.68C44.9184 35.3467 44.6384 33.7867 44.6384 32C44.6384 30.24 44.9184 28.7333 45.4784 27.48C46.0651 26.2 46.8251 25.16 47.7584 24.36C48.6918 23.5333 49.7584 22.9333 50.9584 22.56C52.1584 22.16 53.3851 21.96 54.6384 21.96C56.0518 21.96 57.3318 22.1733 58.4784 22.6C59.6518 23.0267 60.6518 23.6133 61.4784 24.36C62.3318 25.1067 62.9851 26 63.4384 27.04C63.9184 28.08 64.1584 29.2133 64.1584 30.44C64.1584 31.3467 63.9051 32.04 63.3984 32.52C62.8918 33 62.1851 33.3067 61.2784 33.44L51.3984 34.92C51.6918 35.8 52.2918 36.4667 53.1984 36.92C54.1051 37.3467 55.1451 37.56 56.3184 37.56C57.4118 37.56 58.4384 37.4267 59.3984 37.16C60.3851 36.8667 61.1851 36.5333 61.7984 36.16C62.2251 36.4267 62.5851 36.8 62.8784 37.28C63.1718 37.76 63.3184 38.2667 63.3184 38.8C63.3184 40 62.7584 40.8933 61.6384 41.48C60.7851 41.9333 59.8251 42.24 58.7584 42.4C57.6918 42.56 56.6918 42.64 55.7584 42.64ZM54.6384 26.92C53.9984 26.92 53.4384 27.0267 52.9584 27.24C52.5051 27.4533 52.1318 27.7333 51.8384 28.08C51.5451 28.4 51.3184 28.7733 51.1584 29.2C51.0251 29.6 50.9451 30.0133 50.9184 30.44L57.7584 29.32C57.6784 28.7867 57.3851 28.2533 56.8784 27.72C56.3718 27.1867 55.6251 26.92 54.6384 26.92ZM79.7516 29.68C79.7516 28.8533 79.5116 28.2533 79.0316 27.88C78.5782 27.48 77.9516 27.28 77.1516 27.28C76.6182 27.28 76.0849 27.3467 75.5516 27.48C75.0449 27.6133 74.6049 27.8133 74.2316 28.08V41.96C73.9649 42.04 73.5382 42.12 72.9516 42.2C72.3916 42.28 71.8049 42.32 71.1916 42.32C70.6049 42.32 70.0716 42.28 69.5916 42.2C69.1382 42.12 68.7516 41.96 68.4316 41.72C68.1116 41.48 67.8582 41.16 67.6716 40.76C67.5116 40.3333 67.4316 39.7867 67.4316 39.12V27.12C67.4316 26.4 67.5782 25.8133 67.8716 25.36C68.1916 24.9067 68.6182 24.4933 69.1516 24.12C70.0582 23.48 71.1916 22.96 72.5516 22.56C73.9382 22.16 75.4716 21.96 77.1516 21.96C80.1649 21.96 82.4849 22.6267 84.1116 23.96C85.7382 25.2667 86.5516 27.0933 86.5516 29.44V41.96C86.2849 42.04 85.8582 42.12 85.2716 42.2C84.7116 42.28 84.1249 42.32 83.5116 42.32C82.9249 42.32 82.3916 42.28 81.9116 42.2C81.4582 42.12 81.0716 41.96 80.7516 41.72C80.4316 41.48 80.1782 41.16 79.9916 40.76C79.8316 40.3333 79.7516 39.7867 79.7516 39.12V29.68ZM97.5519 35.32C97.5519 36.0133 97.7652 36.5067 98.1919 36.8C98.6452 37.0933 99.2719 37.24 100.072 37.24C100.472 37.24 100.885 37.2133 101.312 37.16C101.739 37.08 102.112 36.9867 102.432 36.88C102.672 37.1733 102.872 37.5067 103.032 37.88C103.219 38.2267 103.312 38.6533 103.312 39.16C103.312 40.1733 102.925 41 102.152 41.64C101.405 42.28 100.072 42.6 98.1519 42.6C95.8052 42.6 93.9919 42.0667 92.7119 41C91.4585 39.9333 90.8319 38.2 90.8319 35.8V18.68C91.1252 18.6 91.5385 18.52 92.0719 18.44C92.6319 18.3333 93.2185 18.28 93.8319 18.28C95.0052 18.28 95.9119 18.4933 96.5519 18.92C97.2185 19.32 97.5519 20.1867 97.5519 21.52V24.08H102.792C102.952 24.3733 103.099 24.7467 103.232 25.2C103.392 25.6267 103.472 26.1067 103.472 26.64C103.472 27.5733 103.259 28.2533 102.832 28.68C102.432 29.08 101.885 29.28 101.192 29.28H97.5519V35.32ZM116.088 21.96C117.181 21.96 118.248 22.12 119.288 22.44C120.354 22.7333 121.274 23.1867 122.048 23.8C122.848 23.2667 123.741 22.8267 124.728 22.48C125.741 22.1333 126.954 21.96 128.368 21.96C129.381 21.96 130.368 22.0933 131.328 22.36C132.314 22.6267 133.181 23.0533 133.928 23.64C134.701 24.2 135.314 24.96 135.768 25.92C136.221 26.8533 136.448 28 136.448 29.36V41.96C136.181 42.04 135.754 42.12 135.168 42.2C134.608 42.28 134.021 42.32 133.408 42.32C132.821 42.32 132.288 42.28 131.808 42.2C131.354 42.12 130.968 41.96 130.648 41.72C130.328 41.48 130.074 41.16 129.888 40.76C129.728 40.3333 129.648 39.7867 129.648 39.12V29.56C129.648 28.76 129.421 28.1867 128.968 27.84C128.514 27.4667 127.901 27.28 127.128 27.28C126.754 27.28 126.354 27.3733 125.928 27.56C125.501 27.72 125.181 27.8933 124.968 28.08C124.994 28.1867 125.008 28.2933 125.008 28.4C125.008 28.48 125.008 28.56 125.008 28.64V41.96C124.714 42.04 124.274 42.12 123.688 42.2C123.128 42.28 122.554 42.32 121.968 42.32C121.381 42.32 120.848 42.28 120.368 42.2C119.914 42.12 119.528 41.96 119.208 41.72C118.888 41.48 118.634 41.16 118.448 40.76C118.288 40.3333 118.208 39.7867 118.208 39.12V29.56C118.208 28.76 117.954 28.1867 117.448 27.84C116.968 27.4667 116.381 27.28 115.688 27.28C115.208 27.28 114.794 27.36 114.448 27.52C114.101 27.6533 113.808 27.7867 113.568 27.92V41.96C113.301 42.04 112.874 42.12 112.288 42.2C111.728 42.28 111.141 42.32 110.528 42.32C109.941 42.32 109.408 42.28 108.928 42.2C108.474 42.12 108.088 41.96 107.768 41.72C107.448 41.48 107.194 41.16 107.008 40.76C106.848 40.3333 106.768 39.7867 106.768 39.12V27.04C106.768 26.32 106.914 25.7467 107.208 25.32C107.528 24.8933 107.954 24.4933 108.488 24.12C109.394 23.48 110.514 22.96 111.848 22.56C113.208 22.16 114.621 21.96 116.088 21.96Z" fill="#1A1445"/>
<path d="M161.2 32.28C161.2 33.9333 160.947 35.4133 160.44 36.72C159.933 38 159.213 39.08 158.28 39.96C157.373 40.84 156.28 41.5067 155 41.96C153.72 42.4133 152.293 42.64 150.72 42.64C149.147 42.64 147.72 42.4 146.44 41.92C145.16 41.44 144.053 40.76 143.12 39.88C142.213 38.9733 141.507 37.88 141 36.6C140.493 35.32 140.24 33.88 140.24 32.28C140.24 30.7067 140.493 29.28 141 28C141.507 26.72 142.213 25.64 143.12 24.76C144.053 23.8533 145.16 23.16 146.44 22.68C147.72 22.2 149.147 21.96 150.72 21.96C152.293 21.96 153.72 22.2133 155 22.72C156.28 23.2 157.373 23.8933 158.28 24.8C159.213 25.68 159.933 26.76 160.44 28.04C160.947 29.32 161.2 30.7333 161.2 32.28ZM147.2 32.28C147.2 33.9067 147.507 35.16 148.12 36.04C148.76 36.8933 149.64 37.32 150.76 37.32C151.88 37.32 152.733 36.88 153.32 36C153.933 35.12 154.24 33.88 154.24 32.28C154.24 30.68 153.933 29.4533 153.32 28.6C152.707 27.72 151.84 27.28 150.72 27.28C149.6 27.28 148.733 27.72 148.12 28.6C147.507 29.4533 147.2 30.68 147.2 32.28Z" fill="#1A1445"/>
<path d="M195.4 29.68C195.4 28.8533 195.16 28.2533 194.68 27.88C194.227 27.48 193.6 27.28 192.8 27.28C192.267 27.28 191.733 27.3467 191.2 27.48C190.693 27.6133 190.253 27.8133 189.88 28.08V41.96C189.613 42.04 189.187 42.12 188.6 42.2C188.04 42.28 187.453 42.32 186.84 42.32C186.253 42.32 185.72 42.28 185.24 42.2C184.787 42.12 184.4 41.96 184.08 41.72C183.76 41.48 183.507 41.16 183.32 40.76C183.16 40.3333 183.08 39.7867 183.08 39.12V27.12C183.08 26.4 183.227 25.8133 183.52 25.36C183.84 24.9067 184.267 24.4933 184.8 24.12C185.707 23.48 186.84 22.96 188.2 22.56C189.587 22.16 191.12 21.96 192.8 21.96C195.813 21.96 198.133 22.6267 199.76 23.96C201.387 25.2667 202.2 27.0933 202.2 29.44V41.96C201.933 42.04 201.507 42.12 200.92 42.2C200.36 42.28 199.773 42.32 199.16 42.32C198.573 42.32 198.04 42.28 197.56 42.2C197.107 42.12 196.72 41.96 196.4 41.72C196.08 41.48 195.827 41.16 195.64 40.76C195.48 40.3333 195.4 39.7867 195.4 39.12V29.68Z" fill="#1A1445"/>
<path d="M174.567 23.8554C171.171 22.1684 167.106 22.6194 164.177 25.0078C165.272 25.0523 166.345 25.3337 167.321 25.8326C171.187 27.7084 172.81 32.3484 170.95 36.2045C169.649 38.7928 167.052 40.4788 164.151 40.6181C164.732 40.9963 165.339 41.3335 165.968 41.6269C170.893 44.01 176.81 41.9635 179.185 37.0561C181.559 32.1485 179.492 26.2385 174.567 23.8554Z" fill="#01A9EF"/>
</svg>
