<svg width="10" height="10" viewBox="0 0 10 10" fill="none" xmlns="http://www.w3.org/2000/svg">
<path d="M9.68871 1.21677L8.78254 0.310524C8.3685 -0.103518 7.69487 -0.103498 7.28082 0.310524C6.891 0.700387 0.936793 6.65504 0.538884 7.05297C0.496501 7.09535 0.468103 7.15168 0.457986 7.20678L0.00490067 9.65365C-0.0126579 9.74851 0.0175764 9.84595 0.0857989 9.91418C0.1541 9.98248 0.25156 10.0127 0.346306 9.9951L2.79296 9.54195C2.8495 9.5314 2.90509 9.50273 2.94677 9.46103L9.68871 2.71859C10.1037 2.30359 10.1038 1.63183 9.68871 1.21677ZM0.65861 9.34131L0.932692 7.86115L2.13867 9.06721L0.65861 9.34131ZM2.73962 8.83953L1.16035 7.26016L6.92616 1.4939L8.50543 3.07329L2.73962 8.83953ZM9.27439 2.30427L8.91973 2.65898L7.34045 1.07959L7.69512 0.724879C7.88069 0.539293 8.18262 0.539274 8.36822 0.724879L9.27439 1.63113C9.46043 1.81716 9.46043 2.11822 9.27439 2.30427Z" fill="#01A9EF"/>
</svg>
