<svg width="26" height="79" viewBox="0 0 26 79" fill="none" xmlns="http://www.w3.org/2000/svg">
<rect width="26" height="79" fill="#EEEEEE"/>
<path d="M8.55506 39.6243L15.6753 46.7444C15.8399 46.9092 16.0598 47 16.2942 47C16.5286 47 16.7484 46.9092 16.9131 46.7444L17.4375 46.2202C17.7787 45.8786 17.7787 45.3234 17.4375 44.9823L11.4585 39.0033L17.4441 33.0177C17.6088 32.8529 17.6997 32.6332 17.6997 32.3989C17.6997 32.1643 17.6088 31.9446 17.4441 31.7797L16.9197 31.2556C16.7549 31.0908 16.5352 31 16.3008 31C16.0664 31 15.8466 31.0908 15.6819 31.2556L8.55506 38.3822C8.38999 38.5475 8.29933 38.7683 8.29985 39.0029C8.29933 39.2385 8.38999 39.4591 8.55506 39.6243Z" fill="#1A1445" fill-opacity="0.6"/>
</svg>
