<svg width="20" height="20" viewBox="0 0 20 20" fill="none" xmlns="http://www.w3.org/2000/svg">
<path d="M10.8789 20H9.12109C8.47492 20 7.94922 19.4743 7.94922 18.8281C7.94922 18.2831 8.32324 17.8238 8.82812 17.6933V17.2071C8.82812 17.096 8.74738 16.9997 8.63609 16.9781C7.70043 16.7963 6.82426 16.4334 6.03191 15.8995C5.93707 15.8355 5.81117 15.8462 5.7325 15.9248L5.3857 16.2716C5.62758 16.6926 5.59703 17.235 5.27898 17.6147C5.0675 17.8672 4.75844 18.0202 4.43094 18.0346C4.10348 18.0488 3.78234 17.9244 3.55047 17.6926L2.30746 16.4496C2.08613 16.2283 1.96426 15.934 1.96426 15.621C1.96426 15.3079 2.08613 15.0136 2.30746 14.7923C2.52883 14.571 2.82309 14.4491 3.13613 14.4491C3.34898 14.4491 3.5532 14.5054 3.73164 14.6111L4.07523 14.2675C4.15387 14.1889 4.16449 14.063 4.10055 13.9681C3.56668 13.1757 3.20379 12.2996 3.02195 11.3639C3.00031 11.2526 2.90398 11.1719 2.79289 11.1719H2.30715C2.2541 11.3796 2.14434 11.569 1.98563 11.7222C1.75469 11.9451 1.45094 12.0609 1.12949 12.0501C0.496133 12.0275 0 11.5048 0 10.8602V9.12109C0 8.80066 0.126875 8.50148 0.357266 8.27867C0.587656 8.05594 0.89168 7.93918 1.21172 7.94992C1.72992 7.96719 2.16789 8.33848 2.30172 8.82812H2.79285C2.90398 8.82812 3.00031 8.74738 3.02191 8.63609C3.20375 7.70043 3.56664 6.82426 4.10051 6.03191C4.16445 5.93703 4.15379 5.81109 4.0752 5.7325L3.7316 5.38891C3.55316 5.49457 3.34895 5.5509 3.13609 5.5509C2.82305 5.5509 2.52879 5.42902 2.30742 5.2077C1.85051 4.75078 1.85051 4.0073 2.30742 3.55035L3.55039 2.30742C4.0073 1.85047 4.75074 1.85055 5.2077 2.30742C5.42902 2.52879 5.5509 2.82305 5.5509 3.13609C5.5509 3.34891 5.49457 3.55312 5.38891 3.7316L5.7325 4.0752C5.81117 4.15387 5.93703 4.16445 6.03188 4.10051C6.82426 3.56664 7.70043 3.20375 8.63605 3.02191C8.74738 3.00027 8.82812 2.90395 8.82812 2.79285V2.30668C8.32324 2.17625 7.94922 1.71691 7.94922 1.17188C7.94922 0.525703 8.47492 0 9.12109 0H10.8789C11.5251 0 12.0508 0.525703 12.0508 1.17188C12.0508 1.71691 11.6768 2.17625 11.1719 2.30668V2.79285C11.1719 2.90398 11.2526 3.00031 11.3639 3.02191C12.2996 3.20375 13.1757 3.56664 13.9681 4.10051C14.0629 4.16445 14.1889 4.15383 14.2675 4.0752L14.6114 3.73133C14.3466 3.28199 14.407 2.69277 14.7923 2.30742C15.2492 1.85055 15.9927 1.85047 16.4496 2.30742L17.6926 3.55035C18.1495 4.00727 18.1495 4.75074 17.6926 5.2077C17.4712 5.42902 17.177 5.5509 16.8639 5.5509C16.6511 5.5509 16.4469 5.49457 16.2684 5.38891L15.9248 5.7325C15.8462 5.81109 15.8355 5.93703 15.8995 6.03191C16.4334 6.82426 16.7963 7.70043 16.9781 8.63605C16.9997 8.74738 17.0961 8.82812 17.2071 8.82812H17.6975C17.8241 8.35934 18.2293 7.99742 18.7228 7.95387H18.7228C19.0509 7.92461 19.3776 8.03527 19.6194 8.25664C19.8613 8.47812 20 8.7932 20 9.12109V10.8789C20 11.2068 19.8613 11.5219 19.6194 11.7434C19.3776 11.9647 19.0505 12.075 18.7228 12.0461C18.2293 12.0026 17.8241 11.6407 17.6975 11.1719H17.2071C17.096 11.1719 16.9997 11.2526 16.9781 11.3639C16.7963 12.2996 16.4334 13.1757 15.8995 13.9681C15.8355 14.063 15.8462 14.1889 15.9248 14.2675L16.2684 14.6111C16.4469 14.5054 16.6511 14.4491 16.8639 14.4491C17.177 14.4491 17.4712 14.571 17.6926 14.7923C17.9139 15.0136 18.0358 15.3079 18.0358 15.621C18.0358 15.934 17.9139 16.2283 17.6925 16.4496L16.4496 17.6926C16.2177 17.9245 15.897 18.0491 15.5691 18.0346C15.2416 18.0202 14.9325 17.8672 14.7211 17.6148C14.403 17.235 14.3724 16.6926 14.6143 16.2716L14.2675 15.9248C14.1889 15.8462 14.063 15.8355 13.9682 15.8995C13.1758 16.4334 12.2996 16.7963 11.364 16.9781C11.2527 16.9997 11.1719 17.0961 11.1719 17.2071V17.6933C11.6768 17.8238 12.0508 18.2831 12.0508 18.8281C12.0508 19.4743 11.5251 20 10.8789 20V20ZM5.89688 15.077C6.095 15.077 6.29449 15.1343 6.46852 15.2516C7.17344 15.7266 7.95289 16.0495 8.78516 16.2112C9.2627 16.3039 9.60938 16.7228 9.60938 17.2071V17.9492C9.60938 18.2185 9.39035 18.4375 9.12109 18.4375C8.9057 18.4375 8.73047 18.6127 8.73047 18.8281C8.73047 19.0435 8.9057 19.2188 9.12109 19.2188H10.8789C11.0943 19.2188 11.2695 19.0435 11.2695 18.8281C11.2695 18.6127 11.0943 18.4375 10.8789 18.4375C10.6096 18.4375 10.3906 18.2185 10.3906 17.9492V17.2071C10.3906 16.7229 10.7373 16.3039 11.2149 16.2112C12.0471 16.0494 12.8266 15.7266 13.5316 15.2516C13.9357 14.9793 14.4776 15.03 14.82 15.3724L15.3573 15.9097C15.5407 16.0932 15.5407 16.3918 15.3573 16.5752C15.2084 16.7241 15.192 16.9603 15.32 17.1131C15.3921 17.1992 15.4928 17.2493 15.6035 17.2542C15.715 17.2588 15.8188 17.2186 15.8972 17.1402L17.1402 15.8972C17.214 15.8234 17.2546 15.7254 17.2546 15.621C17.2546 15.5166 17.2139 15.4186 17.1402 15.3448C16.9879 15.1925 16.74 15.1926 16.5877 15.3448L16.5752 15.3573C16.3918 15.5408 16.0932 15.5408 15.9097 15.3573L15.3724 14.82C15.03 14.4777 14.9793 13.9358 15.2516 13.5316C15.7266 12.8266 16.0495 12.0472 16.2112 11.2149C16.3039 10.7373 16.7228 10.3906 17.2071 10.3906H17.9668C18.2263 10.3906 18.4375 10.6018 18.4375 10.8613C18.4375 11.0718 18.593 11.2504 18.7915 11.2679C18.9033 11.2777 19.01 11.242 19.0917 11.1671C19.1736 11.0922 19.2187 10.9898 19.2187 10.8789V9.12109C19.2187 9.0102 19.1736 8.90781 19.0917 8.83285C19.01 8.75793 18.9028 8.72211 18.7915 8.73207C18.593 8.74961 18.4375 8.9282 18.4375 9.13871C18.4375 9.3982 18.2264 9.60938 17.9668 9.60938H17.2071C16.7229 9.60938 16.3039 9.2627 16.2112 8.78508C16.0494 7.95285 15.7266 7.1734 15.2516 6.46844C14.9792 6.06422 15.03 5.52234 15.3724 5.18004L15.8972 4.65523C16.0876 4.46484 16.3973 4.46488 16.5878 4.65523C16.74 4.8075 16.9879 4.80758 17.1402 4.65523C17.2925 4.50293 17.2925 4.25512 17.1402 4.10277L15.8972 2.85984C15.745 2.70762 15.4972 2.70746 15.3448 2.85984C15.1925 3.01211 15.1925 3.25996 15.3448 3.41227C15.5352 3.60266 15.5352 3.91246 15.3448 4.10285L14.82 4.62766C14.4776 4.97 13.9358 5.02078 13.5316 4.74844C12.8266 4.27348 12.0472 3.95059 11.2149 3.78887C10.7373 3.69605 10.3906 3.27719 10.3906 2.79285V2.05078C10.3906 1.78152 10.6096 1.5625 10.8789 1.5625C11.0943 1.5625 11.2695 1.38727 11.2695 1.17188C11.2695 0.956484 11.0943 0.78125 10.8789 0.78125H9.12109C8.9057 0.78125 8.73047 0.956484 8.73047 1.17188C8.73047 1.38727 8.9057 1.5625 9.12109 1.5625C9.39035 1.5625 9.60938 1.78152 9.60938 2.05078V2.79285C9.60938 3.27715 9.2627 3.69605 8.78508 3.78883C7.95285 3.95059 7.1734 4.27344 6.46844 4.7484C6.06426 5.02074 5.52238 4.97 5.18004 4.62762L4.65523 4.10281C4.56305 4.01059 4.51223 3.88797 4.51223 3.75754C4.51223 3.62703 4.56309 3.50437 4.65539 3.41215C4.80758 3.25996 4.80758 3.01211 4.65523 2.8598C4.50293 2.70742 4.25508 2.7075 4.10281 2.8598L2.85984 4.10273C2.70754 4.25504 2.70754 4.50285 2.85984 4.6552C2.93363 4.72898 3.03172 4.76961 3.13605 4.76961C3.24039 4.76961 3.33848 4.72902 3.41223 4.65523C3.60258 4.4648 3.91238 4.46484 4.10281 4.6552L4.62762 5.18C4.96996 5.52234 5.02074 6.06422 4.7484 6.4684C4.27344 7.17336 3.95055 7.95281 3.78883 8.78508C3.69605 9.2627 3.27719 9.60938 2.79285 9.60938H2.03031C1.77234 9.60938 1.5625 9.39953 1.5625 9.14156C1.5625 8.92195 1.39344 8.73762 1.18566 8.7307C1.07875 8.72676 0.977109 8.76594 0.900391 8.84027C0.823555 8.91453 0.78125 9.0143 0.78125 9.12109V10.8602C0.78125 11.0784 0.949922 11.2619 1.15727 11.2693C1.26488 11.2732 1.36613 11.2343 1.44305 11.1601C1.52008 11.0857 1.5625 10.9859 1.5625 10.8789C1.5625 10.6096 1.78152 10.3906 2.05078 10.3906H2.79285C3.27715 10.3906 3.69605 10.7373 3.78883 11.2149C3.95059 12.0471 4.27344 12.8266 4.7484 13.5316C5.02078 13.9358 4.96996 14.4777 4.62762 14.82L4.09031 15.3573C3.90684 15.5408 3.60824 15.5407 3.42477 15.3573L3.41227 15.3448C3.33848 15.2709 3.24043 15.2304 3.13609 15.2304C3.03176 15.2304 2.93363 15.271 2.85988 15.3448C2.78609 15.4186 2.74547 15.5166 2.74547 15.621C2.74547 15.7253 2.78605 15.8234 2.85984 15.8971L4.10285 17.1401C4.18129 17.2185 4.28582 17.2591 4.39652 17.2541C4.50723 17.2493 4.60793 17.1991 4.68008 17.113C4.80801 16.9603 4.79164 16.7241 4.64281 16.5752C4.4593 16.3917 4.4593 16.0931 4.64277 15.9096L5.18008 15.3723C5.37504 15.1774 5.63477 15.077 5.89688 15.077V15.077Z" fill="#1A1445" fill-opacity="0.6"/>
<path d="M8.49115 8.35468C7.5865 8.35468 6.85052 7.6187 6.85052 6.71405C6.85052 5.8094 7.5865 5.07343 8.49115 5.07343C9.3958 5.07343 10.1318 5.8094 10.1318 6.71405C10.1318 7.6187 9.3958 8.35468 8.49115 8.35468ZM8.49115 5.85468C8.01728 5.85468 7.63177 6.24018 7.63177 6.71405C7.63177 7.18792 8.01728 7.57343 8.49115 7.57343C8.96502 7.57343 9.35052 7.18792 9.35052 6.71405C9.35052 6.24018 8.96502 5.85468 8.49115 5.85468Z" fill="#1A1445" fill-opacity="0.6"/>
<path d="M7.38282 13.8987C6.60024 13.8987 5.96356 13.262 5.96356 12.4794C5.96356 11.6968 6.60024 11.0601 7.38282 11.0601C8.1654 11.0601 8.80208 11.6968 8.80208 12.4794C8.80208 13.262 8.1654 13.8987 7.38282 13.8987ZM7.38282 11.8414C7.03102 11.8414 6.74481 12.1276 6.74481 12.4794C6.74481 12.8312 7.03102 13.1174 7.38282 13.1174C7.73462 13.1174 8.02083 12.8312 8.02083 12.4794C8.02083 12.1276 7.73462 11.8414 7.38282 11.8414Z" fill="#1A1445" fill-opacity="0.6"/>
<path d="M12.728 13.51C11.5038 13.51 10.4737 12.5942 10.332 11.3798C10.3069 11.1655 10.4604 10.9715 10.6747 10.9465C10.889 10.9216 11.0829 11.0749 11.1079 11.2892C11.2037 12.1099 11.9002 12.7288 12.728 12.7288C13.6274 12.7288 14.3592 11.997 14.3592 11.0976C14.3592 10.2645 13.7359 9.5675 12.9094 9.47629C12.695 9.45266 12.5403 9.25961 12.564 9.04519C12.5877 8.83074 12.7809 8.67652 12.9951 8.69977C14.2182 8.83473 15.1405 9.86558 15.1405 11.0976C15.1405 12.4278 14.0583 13.51 12.728 13.51Z" fill="#1A1445" fill-opacity="0.6"/>
<path d="M12.2266 7.1048C12.1238 7.1048 12.023 7.063 11.9504 6.99034C11.8777 6.91769 11.8359 6.81691 11.8359 6.71417C11.8359 6.61105 11.8777 6.51066 11.9504 6.438C12.023 6.36538 12.1238 6.32355 12.2266 6.32355C12.3293 6.32355 12.4301 6.36534 12.5027 6.438C12.5754 6.51066 12.6172 6.61144 12.6172 6.71417C12.6172 6.81691 12.5754 6.91769 12.5027 6.99034C12.4301 7.063 12.3293 7.1048 12.2266 7.1048Z" fill="#1A1445" fill-opacity="0.6"/>
<path d="M10 15.0391C9.89727 15.0391 9.79648 14.9973 9.72383 14.9246C9.65117 14.852 9.60938 14.7512 9.60938 14.6484C9.60938 14.5457 9.65113 14.4449 9.72383 14.3723C9.79648 14.2996 9.89687 14.2578 10 14.2578C10.1027 14.2578 10.2035 14.2996 10.2761 14.3723C10.3488 14.4449 10.3906 14.5457 10.3906 14.6484C10.3906 14.7512 10.3488 14.852 10.2761 14.9246C10.2035 14.9973 10.1027 15.0391 10 15.0391Z" fill="#1A1445" fill-opacity="0.6"/>
<path d="M5.61218 10.3958C5.50906 10.3958 5.40867 10.354 5.33601 10.2814C5.26296 10.2087 5.22156 10.1079 5.22156 10.0052C5.22156 9.90206 5.26296 9.80167 5.33601 9.72902C5.40832 9.65597 5.5091 9.61456 5.61218 9.61456C5.71492 9.61456 5.8157 9.65597 5.88835 9.72902C5.96097 9.80167 6.00281 9.90245 6.00281 10.0052C6.00281 10.1079 5.96101 10.2083 5.88835 10.2814C5.8157 10.354 5.71492 10.3958 5.61218 10.3958Z" fill="#1A1445" fill-opacity="0.6"/>
<path d="M11.2936 10.0632C11.1909 10.0632 11.0901 10.0214 11.0175 9.94868C10.9448 9.87606 10.903 9.77528 10.903 9.67255C10.903 9.56938 10.9448 9.46903 11.0175 9.39598C11.0901 9.32333 11.1909 9.28192 11.2936 9.28192C11.3964 9.28192 11.4972 9.32333 11.5698 9.39598C11.6424 9.46903 11.6843 9.56942 11.6843 9.67255C11.6843 9.77528 11.6425 9.87563 11.5698 9.94868C11.4972 10.0214 11.3964 10.0632 11.2936 10.0632Z" fill="#1A1445" fill-opacity="0.6"/>
</svg>
